PathFileType	4	(X/Y/Z)	walk-thru1-1-TP.trc
DataRate	CameraRate	NumFrames	NumMarkers	Units	OrigDataRate	OrigDataStartFrame	OrigNumFrames
120.00	120.00	       4	60	mm	120.00	258	       514
Frame#	Time	Top.Head			Front.Head			Rear.Head			Jaw			C7			R.Clavicle			L.Clavicle			R.Shoulder			L.Shoulder			R.Scapula			L.Scapula			R.Scap.Inf			R.Biceps.Lateral			R.Elbow			R.Elbow.Medial			R.Forearm			R.Ulna			R.Radius			R.Wrist			R.Thumb.M1			R.Thumb.M2			R.Thumb.M3			R.Finger3.M1			R.Finger3.M2			R.Finger3.M3			L.Biceps.Lateral			L.Elbow			L.Elbow.Medial			L.Forearm			L.Ulna			L.Radius			L.Wrist			L.Thumb.M1			L.Thumb.M2			L.Thumb.M3			L.Finger3.M1			L.Finger3.M2			L.Finger3.M3			V.Sacral			R.ASIS			L.ASIS			R.Thigh			R.Thigh.Front			R.Knee			R.Knee.Medial			R.Shank			R.Ankle			R.Ankle.Medial			R.Heel			R.Toe			R.MedFoot			L.Thigh			L.Knee			L.Knee.Medial			L.Shank			L.Ankle			L.Ankle.Medial			L.Heel			L.Toe			L.MedFoot			V_mid_ASIS			V_R_Knee_JC			V_L_Knee_JC			V_R_Elbow_JC			V_L_Elbow_JC			V_R_Ankle_JC			V_L_Ankle_JC			V_R_Wrist_JC			V_L_Wrist_JC			V_R_ScaTrpz_1stMC_JC			V_R_1stMC_1stPP_JC			V_R_1stPP_1stDP_JC			V_R_LunCap_3rdMC_JC			V_R_3rdMC_3rdPP_JC			V_R_3rdPP_3rdMP_JC			V_R_3rdMP_3rdDP_JC			V_L_ScaTrpz_1stMC_JC			V_L_1stMC_1stPP_JC			V_L_1stPP_1stDP_JC			V_L_LunCap_3rdMC_JC			V_L_3rdMC_3rdPP_JC			V_L_3rdPP_3rdMP_JC			V_L_3rdMP_3rdPP_JC			V_ROOT_JC			V_R_Hip_JC			V_L_Hip_JC			V_R_GlenHum_JC			V_L_GlenHum_JC			V_ForeHead_Ctr			V_Vertex			V_Sagit_Lambdoid_Suture			V_R_FrontoTemp			V_L_FrontoTemporal			V_R_ParietalOccip			V_L_ParietalOcciptal			V_R_Temporal			V_L_Temporal			V_mid_FrontRearHead			V_mid_RLGlenHumCtrs			V_C7_vert			V_C1_vert			V_Mid_Hip			
		X1	Y1	Z1	X2	Y2	Z2	X3	Y3	Z3	X4	Y4	Z4	X5	Y5	Z5	X6	Y6	Z6	X7	Y7	Z7	X8	Y8	Z8	X9	Y9	Z9	X10	Y10	Z10	X11	Y11	Z11	X12	Y12	Z12	X13	Y13	Z13	X14	Y14	Z14	X15	Y15	Z15	X16	Y16	Z16	X17	Y17	Z17	X18	Y18	Z18	X19	Y19	Z19	X20	Y20	Z20	X21	Y21	Z21	X22	Y22	Z22	X23	Y23	Z23	X24	Y24	Z24	X25	Y25	Z25	X26	Y26	Z26	X27	Y27	Z27	X28	Y28	Z28	X29	Y29	Z29	X30	Y30	Z30	X31	Y31	Z31	X32	Y32	Z32	X33	Y33	Z33	X34	Y34	Z34	X35	Y35	Z35	X36	Y36	Z36	X37	Y37	Z37	X38	Y38	Z38	X39	Y39	Z39	X40	Y40	Z40	X41	Y41	Z41	X42	Y42	Z42	X43	Y43	Z43	X44	Y44	Z44	X45	Y45	Z45	X46	Y46	Z46	X47	Y47	Z47	X48	Y48	Z48	X49	Y49	Z49	X50	Y50	Z50	X51	Y51	Z51	X52	Y52	Z52	X53	Y53	Z53	X54	Y54	Z54	X55	Y55	Z55	X56	Y56	Z56	X57	Y57	Z57	X58	Y58	Z58	X59	Y59	Z59	X60	Y60	Z60	

258	2.142	-302.34866	-58.35056	1746.13428	-394.37970	-42.15657	1618.75476	-166.75096	-63.26890	1681.21301	-293.52560	-44.97514	1450.51453	-67.40031	-50.13295	1555.57898	-162.95338	72.21912	1475.17615	-167.51775	-171.51062	1459.09399	-111.48998	177.11572	1469.51636	-122.04515	-275.32269	1461.34253	0.78903	48.45377	1469.74170	4.91804	-142.69798	1458.77393	32.83934	53.57327	1380.04260	-64.40334	213.31702	1333.41516	12.39608	242.99565	1157.10486	6.03263	146.01416	1146.22620	-75.46963	245.47710	1084.02039	-4.39638	248.38919	954.27649	-113.58645	242.04842	913.58771	-111.38940	284.88928	880.23291	-124.60689	231.55559	868.85126	-117.86959	195.62947	826.95093	-103.73165	182.67181	777.51892	-113.09814	283.25531	792.72882	-67.66794	229.82443	751.01483	-44.50258	184.89455	785.18738	-69.14877	-307.31454	1315.12500	-14.46308	-326.31305	1145.59924	-0.83791	-232.56317	1117.60632	-105.96133	-324.84818	1072.86951	-60.99811	-352.50357	962.92981	-163.43701	-331.17178	920.86346	-149.35509	-374.30640	887.82086	-195.27751	-331.20944	871.51434	-219.68907	-309.13513	828.84766	-237.05183	-314.42712	781.58478	-189.22307	-390.51367	796.49371	-198.46907	-360.72699	735.76636	-188.74135	-301.98657	733.25043	57.20433	-36.89220	1105.48865	-134.80803	150.86577	1046.70789	-128.64240	-203.41656	1046.16882	-189.82428	162.47023	679.45740	-285.31665	62.27428	608.53668	-259.36096	126.90162	541.91962	-245.14558	13.19409	531.42664	-321.08661	93.69765	334.14844	-291.01050	135.47067	90.35196	-302.81430	31.60313	111.58892	-239.02452	87.74358	41.33645	-457.14322	88.12619	79.44088	-401.15717	57.05415	100.81128	-58.99785	-192.93935	658.43732	-38.07996	-166.33514	512.57678	-21.53868	-58.39982	498.09924	7.15939	-121.99139	308.44836	164.08304	-131.30878	91.34328	112.35216	-39.25724	111.69842	208.69186	-61.10955	61.74061	-11.61763	-132.55411	41.32344	47.98035	-82.71493	84.02026																																																																																																																															
259	2.150	-308.59412	-56.63442	1745.02368	-399.79263	-39.90458	1618.49951	-172.08577	-61.93983	1681.13501	-300.03766	-43.33256	1449.31726	-74.67228	-47.13529	1555.09558	-170.22299	73.67178	1473.38232	-173.53905	-170.54549	1458.35828	-118.39935	179.55655	1468.58301	-127.03023	-273.27863	1460.28418	-6.44775	50.55883	1468.19702	-0.30622	-141.27370	1458.15027	27.07137	54.54122	1378.45801	-72.52779	215.26349	1331.39221	6.55791	245.58006	1155.48340	-0.26931	148.00589	1146.07788	-82.32185	246.96317	1081.88660	-9.62116	249.12427	952.05481	-119.36831	241.07852	911.87921	-117.11611	285.03043	879.34570	-130.84761	232.55870	865.54297	-127.62800	198.49419	825.19556	-115.57162	187.56451	774.01886	-120.12037	286.70087	791.67950	-75.59162	233.45189	748.37323	-53.02149	187.82245	782.92767	-74.17241	-305.21185	1314.60132	-19.88396	-324.32837	1144.38599	-5.99089	-230.27621	1116.97583	-110.93065	-323.34360	1071.63025	-66.04021	-351.29770	962.28497	-167.76668	-329.41000	919.60223	-152.12685	-372.77737	886.85474	-198.69606	-330.32620	869.43866	-223.45715	-308.27310	827.33081	-239.76256	-312.54297	779.93811	-192.77917	-388.67337	794.07947	-201.92195	-359.05252	734.56116	-191.53230	-301.32706	731.85303	50.62160	-35.50002	1104.13025	-142.78162	151.63272	1045.81445	-135.54527	-202.60405	1045.85059	-197.77211	161.77034	679.52594	-291.86261	62.48426	606.89404	-265.98712	127.28352	539.59192	-252.23358	12.89061	530.04962	-325.26636	92.55566	331.40561	-292.89981	135.23320	88.38985	-304.93869	31.39465	110.52044	-240.76172	87.34000	41.05572	-458.93207	88.62794	74.87748	-402.30688	56.04388	97.59919	-63.90782	-191.42998	657.85431	-42.09633	-166.16135	512.24207	-26.63529	-57.59010	497.79364	6.15079	-118.75188	307.93793	163.99884	-130.89452	92.59168	111.07014	-38.62476	112.03845	207.83023	-60.72944	62.85913	-11.64227	-132.41310	41.34903	47.44924	-82.17683	84.41802																																																																																																																															
260	2.158	-314.63287	-55.69949	1745.01819	-405.98141	-38.66125	1618.14734	-178.44452	-60.66851	1679.94214	-307.12781	-42.14400	1449.16309	-78.62348	-46.25024	1555.48743	-176.08092	75.70129	1473.13965	-179.01929	-168.26019	1457.85449	-125.05011	181.43500	1466.98755	-132.08807	-272.01620	1459.65112	-12.64855	52.21638	1467.21594	-6.17391	-138.29128	1456.56165	20.48030	57.03471	1377.17078	-77.80725	216.55075	1330.64844	-1.10709	245.69676	1154.21289	-6.29851	148.85820	1143.96570	-88.65916	245.82411	1079.76392	-15.97267	250.11754	950.45844	-127.07977	241.90135	909.74060	-123.47001	285.63214	878.02667	-137.81310	233.98013	862.15607	-135.42772	200.92781	820.00037	-125.61436	193.83685	769.14063	-128.54076	290.49542	791.77032	-84.32968	238.13423	746.53546	-61.37454	190.27361	779.14709	-79.63977	-303.07800	1314.40491	-25.64959	-322.13153	1144.68567	-12.23455	-229.23297	1115.73047	-116.04529	-321.74164	1070.84277	-70.03275	-348.55197	960.86273	-171.67455	-327.86093	918.31519	-156.75999	-371.04846	884.79047	-202.28143	-328.85678	868.14044	-227.01987	-305.89182	825.19080	-243.92325	-311.96307	777.64478	-195.37228	-387.24774	792.41656	-204.17978	-357.85309	732.96991	-195.95796	-299.09171	730.93256	44.45150	-34.52448	1103.24451	-149.22568	152.89758	1044.18701	-141.38040	-201.42398	1045.08691	-205.43114	161.58014	678.93451	-299.30069	63.19129	605.24438	-271.35168	126.81753	537.14893	-259.26300	13.76704	528.47827	-330.12689	92.98260	329.07932	-295.25888	134.81198	86.59481	-307.47540	30.99374	107.17389	-241.57942	86.95622	40.77640	-460.43378	88.41043	69.60120	-403.89783	56.21889	93.66622	-68.90775	-190.56590	657.56946	-47.02725	-165.38240	511.29526	-30.01133	-56.33556	497.26166	4.04628	-119.00167	308.14444	163.61603	-130.58040	93.63187	109.90160	-38.91167	112.78528	207.44450	-60.47097	64.54666	-11.77872	-132.60999	41.36168	47.05774	-81.87524	84.82465																																																																																																																															
261	2.167	-319.93811	-53.41432	1744.86731	-412.48068	-37.71585	1617.85693	-183.52956	-57.47696	1678.40527	-312.10898	-40.73613	1448.58350	-84.80080	-43.74852	1554.65552	-182.85941	77.96630	1471.97717	-184.67262	-166.93172	1457.41895	-131.06409	184.09448	1465.81323	-137.20457	-269.51614	1459.71509	-18.95856	55.38213	1465.66309	-12.21879	-137.16936	1456.01025	14.73817	59.13070	1375.87695	-84.29048	217.53308	1329.49695	-5.93735	246.81409	1152.49219	-11.89266	148.53864	1142.61755	-94.32278	247.49146	1078.68298	-20.92272	251.06645	947.83478	-134.15251	241.95357	907.76874	-129.34189	287.66910	877.13647	-144.94533	234.75146	860.57269	-143.58035	203.15433	816.73035	-134.62323	199.12007	764.54095	-135.97447	293.77100	791.78168	-94.64751	244.99391	742.65710	-69.17847	196.93491	773.74854	-85.08842	-301.54785	1313.73230	-30.38913	-320.55701	1143.41943	-17.53166	-226.73161	1116.19763	-121.20397	-320.90604	1069.67920	-73.80702	-347.51367	960.49896	-175.65404	-326.93231	916.77643	-159.29503	-370.33035	883.56000	-205.87930	-327.19495	866.54010	-229.69380	-304.98752	823.44043	-245.83264	-309.13547	775.90179	-198.29007	-386.00607	791.12897	-207.21800	-356.26959	731.14795	-197.71480	-298.36212	728.02386	38.40551	-32.07403	1102.16321	-155.94933	153.93732	1042.70825	-146.92387	-200.49928	1044.24194	-211.66499	159.87607	678.49329	-307.20618	63.30188	604.37219	-279.24136	128.55049	536.67389	-264.97943	13.63206	526.78033	-334.17627	92.56498	327.09821	-298.22205	134.88484	86.35503	-309.33701	31.16852	107.19692	-242.13448	86.90147	41.62271	-461.54816	88.52011	63.51596	-407.03647	54.56942	89.46140	-74.01697	-189.64066	657.60016	-51.41624	-164.66678	511.23050	-35.46829	-56.96455	497.08658	1.76599	-116.83455	307.50125	162.63744	-130.48972	95.36839	109.16277	-38.61579	113.27714	207.24950	-60.29639	66.00191	-11.65111	-131.54700	41.20084	46.15318	-82.46097	85.44889																																																																																																																															
